<svg width="12" height="12" viewBox="0 0 12 12" fill="none" xmlns="http://www.w3.org/2000/svg">
  <path fill-rule="evenodd" clip-rule="evenodd" d="M5.64645 1.64645C5.84171 1.45118 6.15829 1.45118 6.35355 1.64645L8.85355 4.14645C9.04882 4.34171 9.04882 4.65829 8.85355 4.85355C8.65829 5.04882 8.34171 5.04882 8.14645 4.85355L6 2.70711L3.85355 4.85355C3.65829 5.04882 3.34171 5.04882 3.14645 4.85355C2.95118 4.65829 2.95118 4.34171 3.14645 4.14645L5.64645 1.64645Z" fill="var(--table-sort-inactive-color, #C7C7C7)"/>
  <path fill-rule="evenodd" clip-rule="evenodd" d="M3.14645 7.14645C3.34171 6.95118 3.65829 6.95118 3.85355 7.14645L6 9.29289L8.14645 7.14645C8.34171 6.95118 8.65829 6.95118 8.85355 7.14645C9.04882 7.34171 9.04882 7.65829 8.85355 7.85355L6.35355 10.3536C6.15829 10.5488 5.84171 10.5488 5.64645 10.3536L3.14645 7.85355C2.95118 7.65829 2.95118 7.34171 3.14645 7.14645Z" fill="currentColor"/>
</svg>
